# xmcd
#
# Track frame offsets: 
#        150
#        10448
#        21275
#        32184
#        49417
#        62032
#        74562
#        84660
#        102793
#        113551
#        124534
#        139173
#        149943
#        159168
#        176137
#        187652
#        201322
#        211870
#
# Disc length: 2961 seconds
#
# Revision: 0
# Processed by: cddbd v1.5.2PL0 Copyright (c) Steve Scherf et al.
# Submitted via: ExactAudioCopy v1.0b2
#
DISCID=090b8f12
DTITLE=Czerwone Gitary - The Best - Nie zadzieraj nosa
DYEAR=2004
DGENRE=Oldies
TTITLE0=Powiedz Stary, gdzieś Ty był
TTITLE1=Takie ładne oczy
TTITLE2=Matura
TTITLE3=Anna Maria
TTITLE4=Nikt na świecie nie wie
TTITLE5=Nie zadzieraj nosa
TTITLE6=Kwiaty we włosach
TTITLE7=Płoną góry, płoną lasy
TTITLE8=Tak bardzo się starałem
TTITLE9=Moda i miłość
TTITLE10=Biały krzyż
TTITLE11=Dozwolone do lat 18-tu
TTITLE12=Bo Ty się boisz myszy
TTITLE13=Wróćmy na jeziora
TTITLE14=Przed pierwszym balem
TTITLE15=Historia jednej znajomości
TTITLE16=Barwy jesieni
TTITLE17=Nie licz dni
EXTD=
EXTT0=
EXTT1=
EXTT2=
EXTT3=
EXTT4=
EXTT5=
EXTT6=
EXTT7=
EXTT8=
EXTT9=
EXTT10=
EXTT11=
EXTT12=
EXTT13=
EXTT14=
EXTT15=
EXTT16=
EXTT17=
PLAYORDER=
